<?xml version="1.0" standalone="yes"?>

<svg version="1.1" viewBox="0.0 0.0 249.08136482939634 258.1391076115486" fill="none" stroke="none" stroke-linecap="square" stroke-miterlimit="10" xmlns="http://www.w3.org/2000/svg" xmlns:xlink="http://www.w3.org/1999/xlink"><clipPath id="p.0"><path d="m0 0l249.08136 0l0 258.1391l-249.08136 0l0 -258.1391z" clip-rule="nonzero"></path></clipPath><g clip-path="url(#p.0)"><path fill="#000000" fill-opacity="0.0" d="m0 0l249.08136 0l0 258.1391l-249.08136 0z" fill-rule="nonzero"></path><path fill="#5992c2" d="m-154.75328 -2.968504l420.75592 0l0 420.12598l-420.75592 0z" fill-rule="nonzero"></path><path fill="#000000" fill-opacity="0.0" d="m0 8.0l250.26772 0l0 232.62993l-250.26772 0z" fill-rule="nonzero"></path><path fill="#d9d9d9" d="m113.22384 139.88q-1.90625 -3.84375 -4.609375 -8.515625q-2.6875 -4.671875 -5.890625 -9.71875q-3.1875 -5.0625 -6.65625 -10.109375q-3.453125 -5.0625 -6.640625 -9.546875q-3.203125 4.484375 -6.65625 9.546875q-3.453125 5.046875 -6.59375 10.109375q-3.140625 5.046875 -5.890625 9.71875q-2.75 4.671875 -4.671875 8.515625l-13.703125 0q5.765625 -11.265625 13.375 -22.90625q7.625 -11.65625 16.203125 -23.9375l-28.421875 -41.859375l14.34375 0l21.875 33.015625l21.640625 -33.015625l14.203125 0l-27.90625 41.34375q8.703125 12.421875 16.375 24.203125q7.6875 11.765625 13.578125 23.15625l-13.953125 0zm23.049263 -33.15625q0 -8.828125 2.546875 -15.421875q2.5625 -6.59375 6.78125 -10.9375q4.234375 -4.359375 9.734375 -6.53125q5.515625 -2.171875 11.265625 -2.171875q13.4375 0 20.609375 8.390625q7.171875 8.375 7.171875 25.53125q0 0.765625 0 1.984375q0 1.203125 -0.125 2.234375l-45.578125 0q0.78125 10.359375 6.015625 15.75q5.25 5.375 16.390625 5.375q6.265625 0 10.546875 -1.09375q4.296875 -1.09375 6.484375 -2.109375l1.65625 9.984375q-2.171875 1.140625 -7.625 2.421875q-5.4375 1.28125 -12.34375 1.28125q-8.703125 0 -15.046875 -2.625q-6.328125 -2.625 -10.421875 -7.21875q-4.09375 -4.609375 -6.078125 -10.9375q-1.984375 -6.34375 -1.984375 -13.90625zm45.6875 -6.53125q0.140625 -8.0625 -4.03125 -13.234375q-4.15625 -5.1875 -11.453125 -5.1875q-4.09375 0 -7.234375 1.609375q-3.125 1.59375 -5.3125 4.15625q-2.171875 2.546875 -3.390625 5.875q-1.21875 3.328125 -1.59375 6.78125l33.015625 0z" fill-rule="nonzero"></path><path fill="#000000" fill-opacity="0.0" d="m-0.88451445 177.5328l250.26773 0l0 30.803146l-250.26773 0z" fill-rule="nonzero"></path><path fill="#d9d9d9" d="m81.516365 209.57281q-0.359375 -0.71875 -0.859375 -1.59375q-0.5 -0.875 -1.109375 -1.828125q-0.59375 -0.953125 -1.25 -1.890625q-0.640625 -0.953125 -1.25 -1.796875q-0.59375 0.84375 -1.25 1.796875q-0.640625 0.9375 -1.234375 1.890625q-0.578125 0.953125 -1.09375 1.828125q-0.515625 0.875 -0.875 1.59375l-2.578125 0q1.078125 -2.109375 2.5 -4.296875q1.4375 -2.1875 3.046875 -4.484375l-5.328125 -7.84375l2.6875 0l4.109375 6.1875l4.046875 -6.1875l2.671875 0l-5.234375 7.75q1.640625 2.328125 3.078125 4.53125q1.4375 2.203125 2.53125 4.34375l-2.609375 0zm5.1595764 0l0 -16.625l10.15625 0l0 1.984375l-7.828125 0l0 4.9375l6.96875 0l0 1.953125l-6.96875 0l0 5.765625l8.421875 0l0 1.984375l-10.75 0zm25.110214 0q-0.53125 -0.890625 -1.21875 -1.984375q-0.6875 -1.109375 -1.484375 -2.296875q-0.78125 -1.1875 -1.640625 -2.40625q-0.84375 -1.234375 -1.6875 -2.375q-0.84375 -1.140625 -1.640625 -2.140625q-0.78125 -1.015625 -1.453125 -1.78125l0 12.984375l-2.28125 0l0 -16.625l1.84375 0q1.140625 1.1875 2.421875 2.796875q1.28125 1.59375 2.53125 3.28125q1.265625 1.6875 2.375 3.328125q1.125 1.625 1.890625 2.90625l0 -12.3125l2.28125 0l0 16.625l-1.9375 0zm5.3938293 -8.328125q0 -2.140625 0.625 -3.765625q0.640625 -1.640625 1.734375 -2.71875q1.09375 -1.09375 2.546875 -1.640625q1.453125 -0.5625 3.09375 -0.5625q1.59375 0 3.0156174 0.5625q1.4375 0.546875 2.515625 1.640625q1.09375 1.078125 1.71875 2.71875q0.640625 1.625 0.640625 3.765625q0 2.140625 -0.640625 3.78125q-0.625 1.625 -1.71875 2.71875q-1.078125 1.078125 -2.515625 1.640625q-1.4218674 0.546875 -3.0156174 0.546875q-1.640625 0 -3.09375 -0.546875q-1.453125 -0.5625 -2.546875 -1.640625q-1.09375 -1.09375 -1.734375 -2.71875q-0.625 -1.640625 -0.625 -3.78125zm2.453125 0q0 1.515625 0.375 2.75q0.390625 1.234375 1.09375 2.109375q0.71875 0.859375 1.734375 1.328125q1.015625 0.453125 2.296875 0.453125q1.265625 0 2.265625 -0.453125q1.0156174 -0.46875 1.7187424 -1.328125q0.71875 -0.875 1.09375 -2.109375q0.390625 -1.234375 0.390625 -2.75q0 -1.515625 -0.390625 -2.75q-0.375 -1.234375 -1.09375 -2.09375q-0.703125 -0.875 -1.7187424 -1.328125q-1.0 -0.46875 -2.265625 -0.46875q-1.28125 0 -2.296875 0.46875q-1.015625 0.453125 -1.734375 1.328125q-0.703125 0.859375 -1.09375 2.09375q-0.375 1.234375 -0.375 2.75zm28.296944 8.328125q-0.53125 -0.890625 -1.21875 -1.984375q-0.6875 -1.109375 -1.484375 -2.296875q-0.78125 -1.1875 -1.640625 -2.40625q-0.84375 -1.234375 -1.6875 -2.375q-0.84375 -1.140625 -1.640625 -2.140625q-0.78125 -1.015625 -1.453125 -1.78125l0 12.984375l-2.28125 0l0 -16.625l1.84375 0q1.140625 1.1875 2.421875 2.796875q1.28125 1.59375 2.53125 3.28125q1.265625 1.6875 2.375 3.328125q1.125 1.625 1.890625 2.90625l0 -12.3125l2.28125 0l0 16.625l-1.9375 0zm6.2375793 -13.203125q1.359375 -0.53125 2.65625 -1.359375q1.296875 -0.828125 2.375 -2.0625l1.59375 0l0 16.625l-2.234375 0l0 -13.53125q-0.28125 0.265625 -0.703125 0.546875q-0.421875 0.28125 -0.921875 0.546875q-0.484375 0.265625 -1.03125 0.515625q-0.53125 0.234375 -1.046875 0.40625l-0.6875 -1.6875zm24.473465 -3.421875l0 2.015625l-5.234375 0l0 14.609375l-2.328125 0l0 -14.609375l-5.21875 0l0 -2.015625l12.78125 0z" fill-rule="nonzero"></path><path fill="#434343" d="m34.58438 230.24469q0 2.15625 -0.671875 3.765625q-0.671875 1.59375 -1.90625 2.640625q-1.21875 1.03125 -2.921875 1.546875q-1.703125 0.515625 -3.734375 0.515625q-1.015625 0 -2.234375 -0.09375q-1.203125 -0.078125 -2.1875 -0.3125l0 -16.125q0.984375 -0.234375 2.1875 -0.3125q1.21875 -0.09375 2.234375 -0.09375q2.03125 0 3.734375 0.515625q1.703125 0.515625 2.921875 1.5625q1.234375 1.03125 1.90625 2.640625q0.671875 1.59375 0.671875 3.75zm-9.046875 6.4375q3.3125 0 4.9375 -1.6875q1.640625 -1.703125 1.640625 -4.75q0 -3.046875 -1.640625 -4.734375q-1.625 -1.703125 -4.9375 -1.703125q-0.984375 0 -1.53125 0.03125q-0.53125 0.015625 -0.75 0.046875l0 12.71875q0.21875 0.03125 0.75 0.0625q0.546875 0.015625 1.53125 0.015625zm16.580704 0.28125q0.796875 0 1.40625 -0.03125q0.609375 -0.046875 1.015625 -0.140625l0 -3.71875q-0.234375 -0.109375 -0.78125 -0.1875q-0.53125 -0.09375 -1.296875 -0.09375q-0.515625 0 -1.078125 0.078125q-0.5625 0.0625 -1.03125 0.296875q-0.46875 0.21875 -0.78125 0.625q-0.3125 0.390625 -0.3125 1.03125q0 1.203125 0.765625 1.671875q0.78125 0.46875 2.09375 0.46875zm-0.1875 -11.1875q1.34375 0 2.265625 0.359375q0.921875 0.34375 1.484375 0.984375q0.5625 0.625 0.796875 1.5q0.25 0.875 0.25 1.9375l0 7.796875q-0.28125 0.046875 -0.796875 0.140625q-0.515625 0.078125 -1.171875 0.140625q-0.640625 0.078125 -1.40625 0.140625q-0.75 0.0625 -1.5 0.0625q-1.046875 0 -1.9375 -0.21875q-0.890625 -0.21875 -1.546875 -0.6875q-0.640625 -0.46875 -1.0 -1.234375q-0.359375 -0.765625 -0.359375 -1.84375q0 -1.03125 0.421875 -1.765625q0.421875 -0.75 1.140625 -1.203125q0.71875 -0.46875 1.671875 -0.671875q0.96875 -0.21875 2.015625 -0.21875q0.34375 0 0.703125 0.03125q0.359375 0.03125 0.671875 0.09375q0.328125 0.0625 0.5625 0.109375q0.25 0.046875 0.34375 0.078125l0 -0.625q0 -0.5625 -0.125 -1.09375q-0.109375 -0.546875 -0.421875 -0.96875q-0.3125 -0.421875 -0.859375 -0.671875q-0.53125 -0.25 -1.390625 -0.25q-1.109375 0 -1.9375 0.15625q-0.828125 0.15625 -1.234375 0.328125l-0.265625 -1.84375q0.4375 -0.203125 1.4375 -0.375q1.015625 -0.1875 2.1875 -0.1875zm13.106094 0.046875q0.28125 0 0.65625 0.046875q0.375 0.03125 0.734375 0.09375q0.359375 0.0625 0.65625 0.125q0.296875 0.046875 0.453125 0.09375l-0.390625 1.953125q-0.265625 -0.09375 -0.875 -0.21875q-0.609375 -0.140625 -1.578125 -0.140625q-0.625 0 -1.234375 0.140625q-0.609375 0.125 -0.796875 0.171875l0 10.484375l-2.234375 0l0 -11.953125q0.796875 -0.28125 1.96875 -0.53125q1.171875 -0.265625 2.640625 -0.265625zm9.170227 5.890625q0.71875 0.546875 1.515625 1.359375q0.8125 0.8125 1.578125 1.765625q0.78125 0.953125 1.484375 1.921875q0.703125 0.96875 1.171875 1.8125l-2.609375 0q-0.5 -0.84375 -1.171875 -1.71875q-0.65625 -0.875 -1.375 -1.671875q-0.71875 -0.8125 -1.46875 -1.484375q-0.734375 -0.671875 -1.40625 -1.125l0 6.0l-2.234375 0l0 -18.234375l2.234375 -0.390625l0 11.375q0.578125 -0.578125 1.265625 -1.265625q0.703125 -0.703125 1.375 -1.421875q0.671875 -0.71875 1.265625 -1.375q0.59375 -0.65625 1.03125 -1.171875l2.625 0q-0.5625 0.609375 -1.21875 1.328125q-0.640625 0.71875 -1.34375 1.453125q-0.6875 0.734375 -1.390625 1.46875q-0.703125 0.71875 -1.328125 1.375z" fill-rule="nonzero"></path><path fill="#d9d9d9" d="m85.37274 236.27594q-0.25 -0.578125 -0.640625 -1.46875q-0.390625 -0.890625 -0.859375 -1.921875q-0.453125 -1.03125 -0.96875 -2.125q-0.515625 -1.09375 -0.96875 -2.0625q-0.453125 -0.96875 -0.859375 -1.734375q-0.390625 -0.78125 -0.625 -1.1875q-0.265625 2.84375 -0.4375 6.140625q-0.15625 3.296875 -0.28125 6.65625l-2.28125 0q0.09375 -2.15625 0.203125 -4.34375q0.125 -2.203125 0.28125 -4.328125q0.15625 -2.125 0.328125 -4.140625q0.1875 -2.015625 0.40625 -3.8125l2.046875 0q0.640625 1.046875 1.390625 2.484375q0.75 1.4375 1.484375 3.015625q0.75 1.578125 1.4375 3.15625q0.703125 1.5625 1.28125 2.859375q0.578125 -1.296875 1.265625 -2.859375q0.703125 -1.578125 1.4375 -3.15625q0.75 -1.578125 1.484375 -3.015625q0.75 -1.4375 1.40625 -2.484375l2.03125 0q0.8125 8.03125 1.21875 16.625l-2.265625 0q-0.125 -3.359375 -0.296875 -6.65625q-0.171875 -3.296875 -0.4375 -6.140625q-0.234375 0.40625 -0.640625 1.1875q-0.390625 0.765625 -0.84375 1.734375q-0.453125 0.96875 -0.96875 2.0625q-0.515625 1.09375 -0.96875 2.125q-0.453125 1.03125 -0.859375 1.921875q-0.390625 0.890625 -0.625 1.46875l-1.875 0zm17.51332 0.6875q0.796875 0 1.40625 -0.03125q0.609375 -0.046875 1.015625 -0.140625l0 -3.71875q-0.234375 -0.109375 -0.78125 -0.1875q-0.53125 -0.09375 -1.296875 -0.09375q-0.515625 0 -1.078125 0.078125q-0.5625 0.0625 -1.03125 0.296875q-0.46875 0.21875 -0.78125 0.625q-0.3125 0.390625 -0.3125 1.03125q0 1.203125 0.765625 1.671875q0.78125 0.46875 2.09375 0.46875zm-0.1875 -11.1875q1.34375 0 2.265625 0.359375q0.921875 0.34375 1.484375 0.984375q0.5625 0.625 0.796875 1.5q0.25 0.875 0.25 1.9375l0 7.796875q-0.28125 0.046875 -0.796875 0.140625q-0.515625 0.078125 -1.171875 0.140625q-0.640625 0.078125 -1.40625 0.140625q-0.75 0.0625 -1.5 0.0625q-1.046875 0 -1.9375 -0.21875q-0.890625 -0.21875 -1.546875 -0.6875q-0.640625 -0.46875 -1.0 -1.234375q-0.359375 -0.765625 -0.359375 -1.84375q0 -1.03125 0.421875 -1.765625q0.421875 -0.75 1.140625 -1.203125q0.71875 -0.46875 1.671875 -0.671875q0.96875 -0.21875 2.015625 -0.21875q0.34375 0 0.703125 0.03125q0.359375 0.03125 0.671875 0.09375q0.328125 0.0625 0.5625 0.109375q0.25 0.046875 0.34375 0.078125l0 -0.625q0 -0.5625 -0.125 -1.09375q-0.109375 -0.546875 -0.421875 -0.96875q-0.3125 -0.421875 -0.859375 -0.671875q-0.53125 -0.25 -1.390625 -0.25q-1.109375 0 -1.9375 0.15625q-0.828125 0.15625 -1.234375 0.328125l-0.265625 -1.84375q0.4375 -0.203125 1.4375 -0.375q1.015625 -0.1875 2.1875 -0.1875zm10.590469 0.3125l4.71875 0l0 1.875l-4.71875 0l0 5.765625q0 0.9375 0.140625 1.546875q0.140625 0.609375 0.421875 0.96875q0.296875 0.34375 0.71875 0.484375q0.4375 0.140625 1.015625 0.140625q1.0 0 1.609375 -0.21875q0.625 -0.234375 0.859375 -0.328125l0.4375 1.84375q-0.34375 0.171875 -1.1875 0.421875q-0.828125 0.25 -1.90625 0.25q-1.28125 0 -2.109375 -0.328125q-0.828125 -0.328125 -1.328125 -0.96875q-0.5 -0.65625 -0.703125 -1.59375q-0.203125 -0.953125 -0.203125 -2.203125l0 -11.125l2.234375 -0.390625l0 3.859375zm9.6479645 0l4.7187424 0l0 1.875l-4.7187424 0l0 5.765625q0 0.9375 0.140625 1.546875q0.140625 0.609375 0.421875 0.96875q0.296875 0.34375 0.71875 0.484375q0.4375 0.140625 1.015625 0.140625q1.0 0 1.609375 -0.21875q0.6249924 -0.234375 0.8593674 -0.328125l0.43749237 1.84375q-0.34374237 0.171875 -1.1874847 0.421875q-0.828125 0.25 -1.90625 0.25q-1.28125 0 -2.109375 -0.328125q-0.828125 -0.328125 -1.328125 -0.96875q-0.5 -0.65625 -0.703125 -1.59375q-0.203125 -0.953125 -0.203125 -2.203125l0 -11.125l2.234375 -0.390625l0 3.859375zm6.8510895 6.265625q0 -1.65625 0.484375 -2.890625q0.484375 -1.234375 1.265625 -2.046875q0.796875 -0.8125 1.828125 -1.21875q1.03125 -0.421875 2.109375 -0.421875q2.53125 0 3.875 1.578125q1.34375 1.578125 1.34375 4.78125q0 0.15625 0 0.390625q0 0.21875 -0.03125 0.40625l-8.546875 0q0.15625 1.9375 1.125 2.953125q0.984375 1.0 3.078125 1.0q1.171875 0 1.96875 -0.203125q0.8125 -0.203125 1.21875 -0.390625l0.3125 1.875q-0.40625 0.21875 -1.421875 0.453125q-1.015625 0.234375 -2.3125 0.234375q-1.640625 0 -2.828125 -0.484375q-1.1875 -0.5 -1.953125 -1.359375q-0.765625 -0.859375 -1.140625 -2.046875q-0.375 -1.1875 -0.375 -2.609375zm8.578125 -1.21875q0.015625 -1.515625 -0.765625 -2.484375q-0.78125 -0.96875 -2.140625 -0.96875q-0.765625 0 -1.359375 0.296875q-0.59375 0.296875 -1.0 0.78125q-0.40625 0.46875 -0.640625 1.09375q-0.21875 0.625 -0.296875 1.28125l6.203125 0zm10.15033 -5.3125q0.28125 0 0.65625 0.046875q0.375 0.03125 0.734375 0.09375q0.359375 0.0625 0.65625 0.125q0.296875 0.046875 0.453125 0.09375l-0.390625 1.953125q-0.265625 -0.09375 -0.875 -0.21875q-0.609375 -0.140625 -1.578125 -0.140625q-0.625 0 -1.234375 0.140625q-0.609375 0.125 -0.796875 0.171875l0 10.484375l-2.234375 0l0 -11.953125q0.796875 -0.28125 1.96875 -0.53125q1.171875 -0.265625 2.640625 -0.265625zm14.198578 11.09375q3.65625 0 3.65625 -2.5q0 -0.765625 -0.328125 -1.296875q-0.328125 -0.546875 -0.875 -0.9375q-0.546875 -0.40625 -1.265625 -0.6875q-0.703125 -0.296875 -1.5 -0.578125q-0.90625 -0.3125 -1.71875 -0.703125q-0.8125 -0.40625 -1.421875 -0.9375q-0.59375 -0.546875 -0.953125 -1.28125q-0.34375 -0.75 -0.34375 -1.8125q0 -2.171875 1.484375 -3.390625q1.5 -1.234375 4.109375 -1.234375q1.515625 0 2.75 0.328125q1.234375 0.3125 1.8125 0.703125l-0.75 1.890625q-0.5 -0.3125 -1.5 -0.609375q-0.984375 -0.296875 -2.3125 -0.296875q-0.671875 0 -1.25 0.140625q-0.578125 0.140625 -1.015625 0.4375q-0.421875 0.28125 -0.671875 0.734375q-0.25 0.4375 -0.25 1.046875q0 0.671875 0.265625 1.125q0.265625 0.453125 0.734375 0.796875q0.484375 0.34375 1.125 0.640625q0.640625 0.28125 1.40625 0.578125q1.078125 0.421875 1.96875 0.859375q0.90625 0.4375 1.5625 1.03125q0.65625 0.59375 1.015625 1.421875q0.375 0.828125 0.375 2.015625q0 2.1875 -1.609375 3.359375q-1.59375 1.171875 -4.5 1.171875q-0.984375 0 -1.8125 -0.140625q-0.828125 -0.125 -1.484375 -0.296875q-0.640625 -0.1875 -1.109375 -0.390625q-0.453125 -0.203125 -0.71875 -0.34375l0.6875 -1.921875q0.5625 0.3125 1.6875 0.703125q1.125 0.375 2.75 0.375zm8.06485 -4.5625q0 -1.65625 0.484375 -2.890625q0.484375 -1.234375 1.265625 -2.046875q0.796875 -0.8125 1.828125 -1.21875q1.03125 -0.421875 2.109375 -0.421875q2.53125 0 3.875 1.578125q1.34375 1.578125 1.34375 4.78125q0 0.15625 0 0.390625q0 0.21875 -0.03125 0.40625l-8.546875 0q0.15625 1.9375 1.125 2.953125q0.984375 1.0 3.078125 1.0q1.171875 0 1.96875 -0.203125q0.8125 -0.203125 1.21875 -0.390625l0.3125 1.875q-0.40625 0.21875 -1.421875 0.453125q-1.015625 0.234375 -2.3125 0.234375q-1.640625 0 -2.828125 -0.484375q-1.1875 -0.5 -1.953125 -1.359375q-0.765625 -0.859375 -1.140625 -2.046875q-0.375 -1.1875 -0.375 -2.609375zm8.578125 -1.21875q0.015625 -1.515625 -0.765625 -2.484375q-0.78125 -0.96875 -2.140625 -0.96875q-0.765625 0 -1.359375 0.296875q-0.59375 0.296875 -1.0 0.78125q-0.40625 0.46875 -0.640625 1.09375q-0.21875 0.625 -0.296875 1.28125l6.203125 0zm9.759705 5.828125q0.796875 0 1.40625 -0.03125q0.609375 -0.046875 1.015625 -0.140625l0 -3.71875q-0.234375 -0.109375 -0.78125 -0.1875q-0.53125 -0.09375 -1.296875 -0.09375q-0.515625 0 -1.078125 0.078125q-0.5625 0.0625 -1.03125 0.296875q-0.46875 0.21875 -0.78125 0.625q-0.3125 0.390625 -0.3125 1.03125q0 1.203125 0.765625 1.671875q0.78125 0.46875 2.09375 0.46875zm-0.1875 -11.1875q1.34375 0 2.265625 0.359375q0.921875 0.34375 1.484375 0.984375q0.5625 0.625 0.796875 1.5q0.25 0.875 0.25 1.9375l0 7.796875q-0.28125 0.046875 -0.796875 0.140625q-0.515625 0.078125 -1.171875 0.140625q-0.640625 0.078125 -1.40625 0.140625q-0.75 0.0625 -1.5 0.0625q-1.046875 0 -1.9375 -0.21875q-0.890625 -0.21875 -1.546875 -0.6875q-0.640625 -0.46875 -1.0 -1.234375q-0.359375 -0.765625 -0.359375 -1.84375q0 -1.03125 0.421875 -1.765625q0.421875 -0.75 1.140625 -1.203125q0.71875 -0.46875 1.671875 -0.671875q0.96875 -0.21875 2.015625 -0.21875q0.34375 0 0.703125 0.03125q0.359375 0.03125 0.671875 0.09375q0.328125 0.0625 0.5625 0.109375q0.25 0.046875 0.34375 0.078125l0 -0.625q0 -0.5625 -0.125 -1.09375q-0.109375 -0.546875 -0.421875 -0.96875q-0.3125 -0.421875 -0.859375 -0.671875q-0.53125 -0.25 -1.390625 -0.25q-1.109375 0 -1.9375 0.15625q-0.828125 0.15625 -1.234375 0.328125l-0.265625 -1.84375q0.4375 -0.203125 1.4375 -0.375q1.015625 -0.1875 2.1875 -0.1875zm13.106079 0.046875q0.28125 0 0.65625 0.046875q0.375 0.03125 0.734375 0.09375q0.359375 0.0625 0.65625 0.125q0.296875 0.046875 0.453125 0.09375l-0.390625 1.953125q-0.265625 -0.09375 -0.875 -0.21875q-0.609375 -0.140625 -1.578125 -0.140625q-0.625 0 -1.234375 0.140625q-0.609375 0.125 -0.796875 0.171875l0 10.484375l-2.234375 0l0 -11.953125q0.796875 -0.28125 1.96875 -0.53125q1.171875 -0.265625 2.640625 -0.265625zm10.076477 13.03125q-1.515625 0 -2.65625 -0.46875q-1.140625 -0.484375 -1.921875 -1.34375q-0.78125 -0.875 -1.171875 -2.0625q-0.375 -1.1875 -0.375 -2.625q0 -1.4375 0.421875 -2.640625q0.421875 -1.203125 1.1875 -2.078125q0.765625 -0.875 1.875 -1.359375q1.125 -0.5 2.5 -0.5q0.84375 0 1.671875 0.15625q0.84375 0.140625 1.609375 0.453125l-0.5 1.890625q-0.5 -0.234375 -1.171875 -0.375q-0.65625 -0.15625 -1.390625 -0.15625q-1.875 0 -2.875 1.1875q-1.0 1.171875 -1.0 3.421875q0 1.015625 0.234375 1.859375q0.234375 0.828125 0.71875 1.4375q0.484375 0.59375 1.25 0.921875q0.78125 0.3125 1.875 0.3125q0.890625 0 1.609375 -0.15625q0.71875 -0.171875 1.140625 -0.359375l0.3125 1.859375q-0.203125 0.125 -0.5625 0.234375q-0.359375 0.109375 -0.8125 0.1875q-0.453125 0.09375 -0.96875 0.140625q-0.515625 0.0625 -1.0 0.0625zm5.738098 -0.28125l0 -18.234375l2.234375 -0.390625l0 6.390625q0.625 -0.25 1.328125 -0.375q0.703125 -0.140625 1.40625 -0.140625q1.484375 0 2.46875 0.421875q0.984375 0.421875 1.5625 1.1875q0.59375 0.75 0.828125 1.8125q0.25 1.046875 0.25 2.3125l0 7.015625l-2.234375 0l0 -6.53125q0 -1.15625 -0.15625 -1.96875q-0.15625 -0.8125 -0.515625 -1.3125q-0.359375 -0.5 -0.96875 -0.734375q-0.59375 -0.234375 -1.484375 -0.234375q-0.359375 0 -0.75 0.046875q-0.375 0.046875 -0.71875 0.109375q-0.34375 0.0625 -0.625 0.140625q-0.28125 0.0625 -0.390625 0.109375l0 10.375l-2.234375 0z" fill-rule="nonzero"></path></g></svg>

