<?xml version="1.0" encoding="utf-8"?>
<!-- Generator: Adobe Illustrator 16.0.3, SVG Export Plug-In . SVG Version: 6.00 Build 0)  -->
<!DOCTYPE svg PUBLIC "-//W3C//DTD SVG 1.1//EN" "http://www.w3.org/Graphics/SVG/1.1/DTD/svg11.dtd">
<svg version="1.1" id="Warstwa_1" xmlns="http://www.w3.org/2000/svg" xmlns:xlink="http://www.w3.org/1999/xlink" x="0px" y="0px"
	 width="425.197px" height="141.732px" viewBox="0 0 425.197 141.732" enable-background="new 0 0 425.197 141.732"
	 xml:space="preserve">
<path fill="#63979D" d="M58.229,67.684c-0.592,0-1.171,0.051-1.743,0.125c1.142,7.827,7.332,13.996,15.17,15.104
	c0.069-0.554,0.116-1.114,0.116-1.687C71.772,73.746,65.71,67.684,58.229,67.684z"/>
<g>
	<path fill="#7A80BC" d="M56.486,67.809c-6.654,0.857-11.799,6.53-11.799,13.417c0,7.48,6.063,13.543,13.542,13.543
		c6.908,0,12.595-5.174,13.427-11.857C63.818,81.804,57.628,75.635,56.486,67.809z"/>
	<path fill="#A4EDBA" d="M74.178,47.307c-9.888,0-17.902,8.014-17.902,17.902c0,0.886,0.086,1.749,0.21,2.6
		c0.572-0.074,1.151-0.125,1.743-0.125c7.48,0,13.542,6.062,13.542,13.542c0,0.572-0.047,1.133-0.116,1.687
		c0.826,0.117,1.664,0.198,2.522,0.198c9.888,0,17.902-8.014,17.902-17.902S84.066,47.307,74.178,47.307z"/>
</g>
<g>
	<path fill="#eeeaea" d="M138.475,69.712h-17.02v9.768c0,1.037-0.813,1.851-1.849,1.851c-1.037,0-1.85-0.814-1.85-1.851V57.725
		c0-1.037,0.813-1.85,1.85-1.85c1.036,0,1.849,0.813,1.849,1.85v8.436h17.02v-8.436c0-1.037,0.814-1.85,1.85-1.85
		c1.036,0,1.85,0.813,1.85,1.85v21.754c0,1.037-0.814,1.851-1.85,1.851c-1.036,0-1.85-0.814-1.85-1.851V69.712z"/>
	<path fill="#eeeaea" d="M156.973,79.479c0,1.037-0.814,1.851-1.852,1.851s-1.852-0.814-1.852-1.851V57.725
		c0-1.037,0.814-1.85,1.852-1.85s1.852,0.813,1.852,1.85V79.479z"/>
	<path fill="#eeeaea" d="M184.125,70.378c0-1.036,0.814-1.776,1.852-1.776c1.034,0,1.852,0.814,1.852,1.849v5.847
		c0,0.444-0.226,1.109-0.595,1.479c-2.367,2.369-5.549,3.775-9.176,3.775c-7.178,0-12.949-5.771-12.949-12.95
		c0-7.179,5.771-12.949,12.949-12.949c3.627,0,6.809,1.405,9.176,3.773c0.738,0.74,0.738,1.85,0,2.59
		c-0.741,0.74-1.922,0.814-2.663,0.074c-1.702-1.701-3.923-2.738-6.513-2.738c-5.104,0-9.249,4.144-9.249,9.25
		c0,5.106,4.146,9.25,9.249,9.25c2.367,0,4.441-0.813,6.067-2.22V70.378z"/>
	<path fill="#eeeaea" d="M218.162,69.712h-17.019v9.768c0,1.037-0.817,1.851-1.852,1.851c-1.037,0-1.849-0.814-1.849-1.851V57.725
		c0-1.037,0.812-1.85,1.849-1.85c1.034,0,1.852,0.813,1.852,1.85v8.436h17.019v-8.436c0-1.037,0.814-1.85,1.849-1.85
		c1.037,0,1.852,0.813,1.852,1.85v21.754c0,1.037-0.814,1.851-1.852,1.851c-1.034,0-1.849-0.814-1.849-1.851V69.712z"/>
	<path fill="#eeeaea" d="M242.948,81.552c-7.181,0-12.949-5.771-12.949-12.95c0-7.179,5.769-12.949,12.949-12.949
		c3.627,0,6.809,1.405,9.176,3.773c0.738,0.74,0.738,1.85,0,2.59c-0.741,0.74-1.925,0.814-2.666,0.074
		c-1.699-1.701-3.92-2.738-6.51-2.738c-5.106,0-9.249,4.144-9.249,9.25c0,5.106,4.143,9.25,9.249,9.25
		c2.59,0,4.884-0.962,6.586-2.664c0.741-0.741,1.849-0.741,2.59,0c0.738,0.74,0.738,1.85,0,2.589
		C249.756,80.146,246.574,81.552,242.948,81.552z"/>
	<path fill="#eeeaea" d="M281.57,69.712h-17.019v9.768c0,1.037-0.814,1.851-1.852,1.851c-1.034,0-1.849-0.814-1.849-1.851V57.725
		c0-1.037,0.814-1.85,1.849-1.85c1.037,0,1.852,0.813,1.852,1.85v8.436h17.019v-8.436c0-1.037,0.814-1.85,1.852-1.85
		c1.034,0,1.849,0.813,1.849,1.85v21.754c0,1.037-0.814,1.851-1.849,1.851c-1.037,0-1.852-0.814-1.852-1.851V69.712z"/>
	<path fill="#eeeaea" d="M308.758,57.503l10.507,20.645c0.223,0.445,0.445,1.036,0.445,1.554c0,1.036-0.668,1.628-1.702,1.628
		c-0.741,0-1.482-0.222-2.001-1.258l-3.253-6.438h-13.547l-3.182,6.438c-0.516,1.036-1.257,1.258-1.995,1.258
		c-1.037,0-1.702-0.593-1.702-1.628c0-0.519,0.22-1.109,0.442-1.554l10.507-20.645c0.668-1.407,2.002-1.628,2.74-1.628
		C306.76,55.875,308.09,56.096,308.758,57.503z M300.985,70.083h9.989l-4.957-9.99L300.985,70.083z"/>
	<path fill="#eeeaea" d="M340.159,56.023c4.441,0,8.065,3.255,8.065,7.696c0,3.921-2.813,6.882-6.51,7.547l6.732,7.104
		c0.665,0.666,0.888,1.85,0.146,2.516c-0.738,0.741-2.145,0.519-2.886-0.296l-8.73-9.176h-6.51v8.14
		c0,1.036-0.817,1.776-1.854,1.776c-1.034,0-1.849-0.814-1.849-1.851V57.873c0-1.035,0.814-1.85,1.849-1.85H340.159z
		 M330.468,59.575v8.288h9.691c2.59,0,4.368-1.776,4.368-4.144c0-2.367-1.778-4.144-4.368-4.144H330.468z"/>
	<path fill="#eeeaea" d="M365.047,59.575h-9.249c-1.034,0-1.849-0.74-1.849-1.776c0-1.036,0.814-1.775,1.849-1.775h22.201
		c1.037,0,1.852,0.74,1.852,1.775c0,1.037-0.814,1.776-1.852,1.776h-9.249v19.905c0,1.037-0.814,1.851-1.849,1.851
		c-1.037,0-1.854-0.814-1.854-1.851V59.575z"/>
	<path fill="#eeeaea" d="M388.724,66.013c0-9.25,5.698-10.359,9.99-10.359c1.035,0,1.85,0.813,1.85,1.85
		c0,1.036-0.814,1.849-1.85,1.849c-3.478,0-6.29,0.74-6.29,6.66v5.18c0,9.25-5.698,10.36-9.99,10.36
		c-1.034,0-1.849-0.814-1.849-1.85s0.814-1.85,1.849-1.85c3.48,0,6.29-0.74,6.29-6.66V66.013z"/>
</g>
<circle fill="#78758C" cx="47.367" cy="62.855" r="3.322"/>
<circle fill="#31436B" cx="58.377" cy="78.154" r="3.322"/>
<circle fill="#78758C" cx="77.569" cy="88.521" r="3.322"/>
<circle fill="#63979D" cx="24.954" cy="91.844" r="3.322"/>
</svg>
